:version 1.10
:name ASF
:units
  mass 1
  length 1
  angle deg
:documentation
  ASF file generated by Kaydara
:root
  axis xyz
  order  tx ty tz rx ry rz
  position 0 0 0
  orientation 0 0 0
:bonedata
  begin
    id 1
    name RightUpLegDummy
    direction -0.718183 -0.695806 0.00816078
    length 4.904
    axis 0 0 0 xyz
  end
  begin
    id 2
    name RightUpLeg
    direction -0.00334265 -0.999142 0.0412837
    length 17.4976
    axis -0.59612 0.00940841 -0.192072 xyz
    dof rx ry rz
  end
  begin
    id 3
    name RightLeg
    direction 0.000365068 -0.988824 -0.149089
    length 16.5821
    axis 6.58657 0.0604092 -0.318554 xyz
    dof rx ry rz
  end
  begin
    id 4
    name RightFoot
    direction 0.00079069 -0.460991 0.887405
    length 3.77069
    axis 0.000105557 -0.120464 -0.188919 xyz
    dof rx ry rz
  end
  begin
    id 5
    name RightToes
    direction 0.00124768 -0.014065 0.9999
    length 3.85082
    axis 0.00053932 0.542178 -0.142707 xyz
    dof rx ry rz
  end
  begin
    id 6
    name SpineDummy
    direction 8.3039e-015 1 4.58682e-016
    length 4.6813
    axis 0 0 0 xyz
  end
  begin
    id 7
    name Spine
    direction 4.12799e-006 0.999988 0.00494944
    length 10.1015
    axis -0.00149944 0.000129667 -0.000235877 xyz
    dof rx ry rz
  end
  begin
    id 8
    name Spine1
    direction 0 0 0
    length 0
    axis -0.00160567 0.000129431 -0.000308381 xyz
    dof rx ry rz
  end
  begin
    id 9
    name HEadDummy
    direction 5.38513e-006 0.999999 0.00127044
    length 3.43865
    axis -0.00160567 0.000129431 -0.000308381 xyz
  end
  begin
    id 10
    name HEad
    direction -0.0226495 0.980942 0.192974
    length 5.12695
    axis -0.00160642 -0.114462 -0.000307946 xyz
    dof rx ry rz
  end
  begin
    id 11
    name LeftShoulder1Dummy
    direction 0.99889 -0.0402564 -0.0244456
    length 3.5433
    axis -0.00160567 0.000129431 -0.000308381 xyz
  end
  begin
    id 12
    name LeftShoulder1
    direction 0.999464 -0.00142945 0.0326977
    length 4.05031
    axis 0.393425 -0.0796525 -0.0507861 xyz
    dof rx ry rz
  end
  begin
    id 13
    name LeftArm
    direction 0.998564 -0.000899612 -0.053557
    length 10.3537
    axis -22.9476 0.126974 0.960871 xyz
    dof rx ry rz
  end
  begin
    id 14
    name LeftForeArm
    direction 0.998903 0.00865904 0.0460121
    length 8.70632
    axis -9.91856 -0.0656997 -0.178106 xyz
    dof rx ry rz
  end
  begin
    id 15
    name LeftHand
    direction 0.992938 -0.0411687 0.11126
    length 5.32135
    axis -0.00981066 -0.00340928 0.18486 xyz
    dof rx ry rz
  end
  begin
    id 16
    name RightShoulderDummy
    direction -0.998891 -0.0402456 -0.0244411
    length 3.5433
    axis -0.00160567 0.000129431 -0.000308381 xyz
  end
  begin
    id 17
    name RightShoulder
    direction -0.999353 -0.00388479 0.0357579
    length 4.05031
    axis 1.48787 0.256014 0.157284 xyz
    dof rx ry rz
  end
  begin
    id 18
    name RightArm
    direction -0.998583 -0.000660455 -0.0532032
    length 10.3947
    axis -22.4211 -0.109147 -0.943573 xyz
    dof rx ry rz
  end
  begin
    id 19
    name RightForeArm
    direction -0.998898 0.00868588 0.0461311
    length 8.68355
    axis -9.92343 0.0658342 0.178556 xyz
    dof rx ry rz
  end
  begin
    id 20
    name RightHand
    direction -0.992843 -0.0414545 0.112004
    length 5.28593
    axis -0.00982288 0.00332907 -0.185539 xyz
    dof rx ry rz
  end
  begin
    id 21
    name LeftUpLegDummy
    direction 0.718183 -0.695806 0.00816078
    length 4.904
    axis 0 0 0 xyz
  end
  begin
    id 22
    name LeftUpLeg
    direction 0.00445374 -0.999139 0.0412407
    length 17.4976
    axis -0.593655 -0.0138231 0.255969 xyz
    dof rx ry rz
  end
  begin
    id 23
    name LeftLeg
    direction -0.00154847 -0.988829 -0.149046
    length 16.5821
    axis 6.5841 -0.0555156 0.250722 xyz
    dof rx ry rz
  end
  begin
    id 24
    name LeftFoot
    direction -0.00417678 -0.460985 0.887398
    length 3.77069
    axis 5.53694e-005 4.88088e-005 -0.000136194 xyz
    dof rx ry rz
  end
  begin
    id 25
    name LeftToes
    direction 0.00818061 -0.00485256 0.999955
    length 3.85048
    axis 6.41179e-005 4.88477e-005 -0.000136145 xyz
    dof rx ry rz
  end
:hierarchy
  begin
    root RightUpLegDummy SpineDummy LeftUpLegDummy
    RightUpLegDummy RightUpLeg
    RightUpLeg RightLeg
    RightLeg RightFoot
    RightFoot RightToes
    SpineDummy Spine
    Spine Spine1
    Spine1 HEadDummy LeftShoulder1Dummy RightShoulderDummy
    HEadDummy HEad
    LeftShoulder1Dummy LeftShoulder1
    LeftShoulder1 LeftArm
    LeftArm LeftForeArm
    LeftForeArm LeftHand
    RightShoulderDummy RightShoulder
    RightShoulder RightArm
    RightArm RightForeArm
    RightForeArm RightHand
    LeftUpLegDummy LeftUpLeg
    LeftUpLeg LeftLeg
    LeftLeg LeftFoot
    LeftFoot LeftToes
  end

:SAMPLES-PER-SECOND 30
:FULLY-SPECIFIED
:DEGREES
75
root  -74.5394 39.5507 -1.86129 -57.8204 88.0047 -59.1171
RightUpLeg  -21.8559 3.82615 1.95808
RightLeg  11.1085 8.38878 0.219279
RightFoot  3.68452 -0.48611 3.30379
RightToes  -6.40286e-010 -1.59028e-015 9.93923e-017
Spine  -5.47917 -2.14569 -1.62067
Spine1  10.5531 -2.42216 -0.0776113
HEad  -10.9045 2.67216 -0.320152
LeftShoulder1  9.93923e-017 0 1.22299e-017
LeftArm  21.7218 42.1662 -78.5314
LeftForeArm  -32.1111 -18.3082 -0.060075
LeftHand  0.978477 6.88573 -4.989
RightShoulder  1.98785e-016 -4.96962e-017 1.55301e-017
RightArm  21.8142 -48.56 86.1949
RightForeArm  -47.4044 19.8901 -13.8164
RightHand  0.96781 -9.40212 -3.82864
LeftUpLeg  -0.315132 1.12943 -1.85541
LeftLeg  10.4952 -8.20526 0.614049
LeftFoot  -13.2498 -0.0415809 2.1942
LeftToes  8.73142e-011 -6.07963e-011 6.03181e-012
76
root  -73.934 39.4749 -1.81785 -69.0557 88.055 -70.3335
RightUpLeg  -22.2669 4.27479 1.66146
RightLeg  6.6201 7.59881 0.454822
RightFoot  5.82341 -0.543202 3.26929
RightToes  -6.40286e-010 -1.59028e-015 9.93923e-017
Spine  -5.23502 -2.43137 -1.97691
Spine1  10.6344 -2.81239 0.500718
HEad  -10.9817 2.55098 -0.192429
LeftShoulder1  9.93923e-017 0 1.22299e-017
LeftArm  26.6318 41.4291 -78.7519
LeftForeArm  -36.0387 -19.8109 1.72244
LeftHand  0.962732 6.70083 -5.56881
RightShoulder  1.98785e-016 -4.96962e-017 1.55301e-017
RightArm  20.5252 -48.8894 85.9022
RightForeArm  -45.9785 19.7613 -13.0303
RightHand  0.924314 -9.12534 -3.48933
LeftUpLeg  0.648259 1.2736 -1.57024
LeftLeg  10.579 -8.65585 0.684908
LeftFoot  -14.1392 -0.0276831 2.13744
LeftToes  8.73142e-011 -6.07963e-011 6.03181e-012
77
root  -73.2461 39.3979 -1.77025 -86.1001 87.962 -87.4785
RightUpLeg  -22.3956 4.69842 1.37486
RightLeg  2.16908 6.43554 0.721184
RightFoot  6.93793 -0.54763 3.10972
RightToes  -6.40286e-010 -1.59028e-015 9.93923e-017
Spine  -5.21502 -2.75953 -2.02814
Spine1  10.6848 -3.25198 0.989648
HEad  -10.8094 2.49224 -0.119972
LeftShoulder1  9.93923e-017 0 1.22299e-017
LeftArm  30.3513 40.7606 -78.9665
LeftForeArm  -39.4606 -21.0524 3.62317
LeftHand  0.953052 6.5752 -5.9418
RightShoulder  1.98785e-016 -4.96962e-017 1.55301e-017
RightArm  19.7678 -49.4358 85.5717
RightForeArm  -44.8295 19.6382 -12.1911
RightHand  0.931619 -9.17673 -3.52254
LeftUpLeg  1.70169 1.37775 -1.16774
LeftLeg  10.4225 -9.25096 0.779818
LeftFoot  -15.107 -0.017259 1.82088
LeftToes  8.73142e-011 -6.07963e-011 6.03181e-012
78
root  -72.4661 39.3013 -1.71341 -100.122 87.6609 -101.749
RightUpLeg  -22.5024 4.88185 1.24937
RightLeg  -1.64346 5.35432 1.05007
RightFoot  7.58088 -0.511153 2.81129
RightToes  -6.40286e-010 -1.59028e-015 9.93923e-017
Spine  -5.44591 -3.0311 -1.82616
Spine1  10.6766 -3.62628 1.36339
HEad  -10.4558 2.47524 -0.133496
LeftShoulder1  9.93923e-017 0 1.22299e-017
LeftArm  32.4742 40.103 -79.2297
LeftForeArm  -41.8723 -21.9212 5.31678
LeftHand  0.945513 6.49023 -5.93355
RightShoulder  1.98785e-016 -4.96962e-017 1.55301e-017
RightArm  19.4513 -50.2088 85.1211
RightForeArm  -43.8878 19.5302 -11.4871
RightHand  0.941011 -9.2255 -3.65619
LeftUpLeg  2.71876 1.48795 -0.687842
LeftLeg  10.2472 -9.80885 0.942661
LeftFoot  -16.0761 -0.0138185 1.40833
LeftToes  8.73142e-011 -6.07963e-011 6.03181e-012
79
root  -71.596 39.17 -1.64383 -103.262 87.316 -105.261
RightUpLeg  -22.8934 4.99321 1.33025
RightLeg  -3.91078 4.35745 1.3853
RightFoot  7.72315 -0.44206 2.41435
RightToes  -6.40286e-010 -1.59028e-015 9.93923e-017
Spine  -5.83225 -3.12631 -1.34818
Spine1  10.5749 -3.77899 1.49921
HEad  -10.1813 2.40754 -0.210691
LeftShoulder1  9.93923e-017 0 1.22299e-017
LeftArm  33.8116 39.4966 -79.5996
LeftForeArm  -44.1181 -22.673 7.10581
LeftHand  0.954349 6.59103 -5.92585
RightShoulder  1.98785e-016 -4.96962e-017 1.55301e-017
RightArm  19.1488 -51.0833 84.5308
RightForeArm  -43.0409 19.4263 -10.9156
RightHand  0.951178 -9.27298 -3.81896
LeftUpLeg  3.68015 1.65226 -0.196575
LeftLeg  10.2376 -10.0144 1.20482
LeftFoot  -16.9743 -0.00791757 1.32011
LeftToes  8.73142e-011 -6.07963e-011 6.03181e-012
80
root  -70.6569 39.0186 -1.55601 -101.47 86.976 -103.885
RightUpLeg  -23.5498 5.1659 1.59488
RightLeg  -4.13018 3.21747 1.58857
RightFoot  7.34201 -0.323902 1.80327
RightToes  -6.40286e-010 -1.59028e-015 9.93923e-017
Spine  -6.0866 -3.12608 -0.749429
Spine1  10.3515 -3.85079 1.61089
HEad  -10.3044 2.33177 -0.276115
LeftShoulder1  9.93923e-017 0 1.22299e-017
LeftArm  35.1048 39.0405 -80.0633
LeftForeArm  -46.9978 -23.4783 9.34398
LeftHand  0.981124 6.88676 -6.19483
RightShoulder  1.98785e-016 -4.96962e-017 1.55301e-017
RightArm  18.5402 -51.7943 83.91
RightForeArm  -42.1687 19.2815 -10.1686
RightHand  1.00798 -9.63374 -4.19046
LeftUpLeg  4.71314 1.82323 0.362832
LeftLeg  10.2534 -9.97702 1.50892
LeftFoot  -17.8503 -0.00350895 1.2573
LeftToes  8.73142e-011 -6.07963e-011 6.03181e-012
81
root  -69.6613 38.868 -1.43164 -104.436 86.6231 -107.257
RightUpLeg  -24.3065 5.2179 1.90101
RightLeg  -2.40917 2.08243 1.52968
RightFoot  7.50828 -0.152394 0.855147
RightToes  -6.40286e-010 -1.59028e-015 9.93923e-017
Spine  -6.02792 -3.23743 -0.545293
Spine1  9.97026 -4.12533 2.11905
HEad  -10.7992 2.33476 -0.2474
LeftShoulder1  9.93923e-017 0 1.22299e-017
LeftArm  36.1924 38.7112 -80.4911
LeftForeArm  -49.9223 -24.2203 11.719
LeftHand  1.0003 7.10703 -6.47631
RightShoulder  1.98785e-016 -4.96962e-017 1.55301e-017
RightArm  17.4802 -52.1961 83.3628
RightForeArm  -40.8585 19.0218 -8.95622
RightHand  1.09564 -10.1922 -4.63424
LeftUpLeg  5.78414 1.93635 1.04076
LeftLeg  10.3121 -10.3185 1.72952
LeftFoot  -18.5603 -0.0357006 0.414863
LeftToes  8.73142e-011 -6.07963e-011 6.03181e-012
